<svg xmlns="http://www.w3.org/2000/svg" width="980" height="460" viewBox="0 0 980 460" role="img">
<style>
text{font-family:Inter,Arial,sans-serif;fill:#17202a} .small{font-size:13px}.label{font-size:15px;font-weight:600}.title{font-size:22px;font-weight:700}.muted{fill:#5d6d7e}.box{fill:#f8fafc;stroke:#ccd6e0;stroke-width:1.5}.green{fill:#1f9d55}.red{fill:#c0392b}.blue{fill:#2471a3}.amber{fill:#d68910}.purple{fill:#6c5ce7}.line{stroke:#2c3e50;stroke-width:2;fill:none}.grid{stroke:#edf2f7;stroke-width:1}
</style>
<rect width="980" height="460" fill="#ffffff"/>
<text x="40" y="48" class="title">Thermal gate from real hardware telemetry</text>
<text x="40" y="75" class="small muted">At 55C, low-priority VLM begins to defer while CV/change tasks continue.</text>
<line x1="80" y1="120.0" x2="880" y2="120.0" class="grid"/>
<line x1="80" y1="180.0" x2="880" y2="180.0" class="grid"/>
<line x1="80" y1="240.0" x2="880" y2="240.0" class="grid"/>
<line x1="80" y1="300.0" x2="880" y2="300.0" class="grid"/>
<line x1="80" y1="360.0" x2="880" y2="360.0" class="grid"/>
<polyline points="80.0,310.1 361.0,232.3 668.7,169.9 880.0,224.5" fill="none" stroke="#c0392b" stroke-width="3"/>
<polyline points="80.0,360.0 361.0,312.0 668.7,264.0 880.0,120.0" fill="none" stroke="#2471a3" stroke-width="3"/>
<circle cx="80.0" cy="310.1" r="5" fill="#c0392b"/>
<circle cx="80.0" cy="360.0" r="5" fill="#2471a3"/>
<circle cx="361.0" cy="232.3" r="5" fill="#c0392b"/>
<circle cx="361.0" cy="312.0" r="5" fill="#2471a3"/>
<circle cx="668.7" cy="169.9" r="5" fill="#c0392b"/>
<circle cx="668.7" cy="264.0" r="5" fill="#2471a3"/>
<circle cx="880.0" cy="224.5" r="5" fill="#c0392b"/>
<circle cx="880.0" cy="120.0" r="5" fill="#2471a3"/>
<line x1="361.0" y1="120" x2="361.0" y2="360" stroke="#d68910" stroke-dasharray="6 5" stroke-width="2"/>
<text x="369.0" y="140" class="small amber">target reached</text>
<text x="80" y="395" class="small red">red: temperature C</text>
<text x="260" y="395" class="small blue">blue: VLM thermal deferrals</text>
<text x="680" y="395" class="small muted">x-axis: elapsed seconds</text>
</svg>