<svg xmlns="http://www.w3.org/2000/svg" width="980" height="500" viewBox="0 0 980 500" role="img">
<style>
text{font-family:Inter,Arial,sans-serif;fill:#17202a} .small{font-size:13px}.label{font-size:15px;font-weight:600}.title{font-size:22px;font-weight:700}.muted{fill:#5d6d7e}.box{fill:#f8fafc;stroke:#ccd6e0;stroke-width:1.5}.green{fill:#1f9d55}.red{fill:#c0392b}.blue{fill:#2471a3}.amber{fill:#d68910}.purple{fill:#6c5ce7}.line{stroke:#2c3e50;stroke-width:2;fill:none}.grid{stroke:#edf2f7;stroke-width:1}
</style>
<rect width="980" height="500" fill="#ffffff"/>
<text x="40" y="48" class="title">HITL VLM defer and recovery on Orin Nano</text>
<text x="40" y="75" class="small muted">Real sysfs telemetry: TALOS defers low-priority VLM while hot, then replays the entire queue after cooldown.</text>
<line x1="82" y1="120.0" x2="882" y2="120.0" class="grid"/>
<line x1="82" y1="170.0" x2="882" y2="170.0" class="grid"/>
<line x1="82" y1="220.0" x2="882" y2="220.0" class="grid"/>
<line x1="82" y1="270.0" x2="882" y2="270.0" class="grid"/>
<line x1="82" y1="320.0" x2="882" y2="320.0" class="grid"/>
<line x1="82" y1="370.0" x2="882" y2="370.0" class="grid"/>
<line x1="82" y1="298.5" x2="882" y2="298.5" stroke="#c0392b" stroke-dasharray="6 5" stroke-width="2"/>
<text x="722" y="290.5" class="small red">VLM gate 50C</text>
<polyline points="82.0,290.6 142.9,266.8 802.6,183.5 802.6,183.5 811.9,306.5 882.0,306.5" fill="none" stroke="#c0392b" stroke-width="3"/>
<polyline points="82.0,370.0 142.9,363.1 802.6,120.0 802.6,120.0 811.9,120.0 882.0,120.0" fill="none" stroke="#d68910" stroke-width="3"/>
<polyline points="82.0,370.0 142.9,370.0 802.6,370.0 802.6,370.0 811.9,363.1 882.0,120.0" fill="none" stroke="#1f9d55" stroke-width="3"/>
<circle cx="82.0" cy="290.6" r="5" fill="#c0392b"/>
<circle cx="142.9" cy="266.8" r="5" fill="#c0392b"/>
<circle cx="802.6" cy="183.5" r="5" fill="#c0392b"/>
<circle cx="802.6" cy="183.5" r="5" fill="#c0392b"/>
<line x1="802.6" y1="120" x2="802.6" y2="370" stroke="#5d6d7e" stroke-dasharray="5 5"/>
<text x="810.6" y="142" class="small muted">cooldown starts</text>
<circle cx="811.9" cy="306.5" r="5" fill="#c0392b"/>
<circle cx="882.0" cy="306.5" r="5" fill="#c0392b"/>
<line x1="882.0" y1="120" x2="882.0" y2="370" stroke="#5d6d7e" stroke-dasharray="5 5"/>
<text x="890.0" y="142" class="small muted">queue empty</text>
<text x="82" y="415" class="small red">red: temperature C</text>
<text x="255" y="415" class="small amber">amber: cumulative VLM deferred</text>
<text x="520" y="415" class="small green">green: deferred VLM replayed</text>
<text x="720" y="445" class="small muted">x-axis: elapsed seconds</text>
</svg>